<mxfile host="www.draw.io" modified="2020-03-05T09:57:42.705Z" agent="Mozilla/5.0 (X11; Linux x86_64; rv:73.0) Gecko/20100101 Firefox/73.0" etag="Q8-T9muXrfLdo0_CfADZ" version="12.7.9" type="github">
  <diagram id="k4cw5h_0fVER-fqyHs3r" name="Seite-1">
    <mxGraphModel dx="1408" dy="797" grid="1" gridSize="10" guides="1" tooltips="1" connect="1" arrows="1" fold="1" page="1" pageScale="1" pageWidth="827" pageHeight="1169" math="0" shadow="0">
      <root>
        <mxCell id="0" />
        <mxCell id="1" parent="0" />
        <mxCell id="hY-MnW-EoitDarra9r_p-9" value="" style="edgeStyle=orthogonalEdgeStyle;rounded=0;orthogonalLoop=1;jettySize=auto;html=1;exitX=0.5;exitY=1;exitDx=0;exitDy=0;entryX=0;entryY=0.5;entryDx=0;entryDy=0;" parent="1" source="hY-MnW-EoitDarra9r_p-16" target="_sODZMTpV888g5sVHCmp-1" edge="1">
          <mxGeometry relative="1" as="geometry">
            <mxPoint x="386.43" y="-110" as="sourcePoint" />
            <mxPoint x="386.43" y="-30" as="targetPoint" />
            <Array as="points">
              <mxPoint x="50" y="60" />
            </Array>
          </mxGeometry>
        </mxCell>
        <mxCell id="hY-MnW-EoitDarra9r_p-16" value="mainloop" style="text;html=1;strokeColor=#b85450;fillColor=#f8cecc;align=center;verticalAlign=middle;whiteSpace=wrap;rounded=0;gradientColor=#ea6b66;" parent="1" vertex="1">
          <mxGeometry x="20" y="50" width="60" height="20" as="geometry" />
        </mxCell>
        <mxCell id="hY-MnW-EoitDarra9r_p-29" value="" style="edgeStyle=orthogonalEdgeStyle;rounded=0;orthogonalLoop=1;jettySize=auto;html=1;" parent="1" source="hY-MnW-EoitDarra9r_p-20" target="hY-MnW-EoitDarra9r_p-22" edge="1">
          <mxGeometry relative="1" as="geometry" />
        </mxCell>
        <mxCell id="hY-MnW-EoitDarra9r_p-20" value="read Pin Level Register" style="rounded=1;whiteSpace=wrap;html=1;gradientColor=#7ea6e0;fillColor=#dae8fc;strokeColor=#6c8ebf;" parent="1" vertex="1">
          <mxGeometry x="230" y="670" width="120" height="60" as="geometry" />
        </mxCell>
        <mxCell id="hY-MnW-EoitDarra9r_p-27" value="no" style="edgeStyle=orthogonalEdgeStyle;rounded=0;orthogonalLoop=1;jettySize=auto;html=1;entryX=0.5;entryY=1;entryDx=0;entryDy=0;exitX=0.5;exitY=1;exitDx=0;exitDy=0;" parent="1" source="hY-MnW-EoitDarra9r_p-22" target="_sODZMTpV888g5sVHCmp-1" edge="1">
          <mxGeometry x="-0.9267" relative="1" as="geometry">
            <mxPoint x="580" y="1100" as="targetPoint" />
            <Array as="points">
              <mxPoint x="486" y="810" />
              <mxPoint x="200" y="810" />
            </Array>
            <mxPoint as="offset" />
          </mxGeometry>
        </mxCell>
        <mxCell id="Ijgg2MWexYn2Fw6oENN2-9" value="yes" style="edgeStyle=orthogonalEdgeStyle;rounded=0;orthogonalLoop=1;jettySize=auto;html=1;entryX=0;entryY=0.5;entryDx=0;entryDy=0;exitX=1;exitY=0.5;exitDx=0;exitDy=0;" parent="1" source="hY-MnW-EoitDarra9r_p-22" edge="1" target="YmnJSVa9suwpmFod_Zgd-20">
          <mxGeometry x="0.1053" relative="1" as="geometry">
            <Array as="points">
              <mxPoint x="640" y="700" />
              <mxPoint x="640" y="700" />
            </Array>
            <mxPoint x="715" y="1120" as="targetPoint" />
            <mxPoint as="offset" />
          </mxGeometry>
        </mxCell>
        <mxCell id="hY-MnW-EoitDarra9r_p-22" value="Is Button pressed?&lt;br&gt;(Bit 8)" style="rhombus;whiteSpace=wrap;html=1;gradientColor=#ffd966;fillColor=#fff2cc;strokeColor=#d6b656;" parent="1" vertex="1">
          <mxGeometry x="416.43" y="635" width="140" height="130" as="geometry" />
        </mxCell>
        <mxCell id="hY-MnW-EoitDarra9r_p-30" value="mainloop_fetch_mm" style="text;html=1;strokeColor=#b85450;fillColor=#f8cecc;align=center;verticalAlign=middle;whiteSpace=wrap;rounded=0;gradientColor=#ea6b66;" parent="1" vertex="1">
          <mxGeometry x="331.43" y="150" width="110" height="20" as="geometry" />
        </mxCell>
        <mxCell id="hY-MnW-EoitDarra9r_p-41" value="" style="edgeStyle=orthogonalEdgeStyle;rounded=0;orthogonalLoop=1;jettySize=auto;html=1;exitX=0.5;exitY=1;exitDx=0;exitDy=0;" parent="1" source="hY-MnW-EoitDarra9r_p-30" target="hY-MnW-EoitDarra9r_p-32" edge="1">
          <mxGeometry relative="1" as="geometry">
            <mxPoint x="386.4000000000001" y="180" as="sourcePoint" />
          </mxGeometry>
        </mxCell>
        <mxCell id="hY-MnW-EoitDarra9r_p-42" value="" style="edgeStyle=orthogonalEdgeStyle;rounded=0;orthogonalLoop=1;jettySize=auto;html=1;" parent="1" source="hY-MnW-EoitDarra9r_p-32" target="hY-MnW-EoitDarra9r_p-35" edge="1">
          <mxGeometry relative="1" as="geometry" />
        </mxCell>
        <mxCell id="hY-MnW-EoitDarra9r_p-32" value="branch(bl) to&lt;br&gt;get_color" style="rounded=1;whiteSpace=wrap;html=1;gradientColor=#7ea6e0;fillColor=#dae8fc;strokeColor=#6c8ebf;" parent="1" vertex="1">
          <mxGeometry x="326.43" y="210" width="120" height="60" as="geometry" />
        </mxCell>
        <mxCell id="hY-MnW-EoitDarra9r_p-38" value="no" style="edgeStyle=orthogonalEdgeStyle;rounded=0;orthogonalLoop=1;jettySize=auto;html=1;entryX=0;entryY=0.5;entryDx=0;entryDy=0;exitX=1;exitY=0.5;exitDx=0;exitDy=0;" parent="1" source="hY-MnW-EoitDarra9r_p-35" target="YmnJSVa9suwpmFod_Zgd-1" edge="1">
          <mxGeometry relative="1" as="geometry">
            <mxPoint x="450" y="365" as="sourcePoint" />
            <mxPoint x="451.5" y="745" as="targetPoint" />
            <Array as="points" />
          </mxGeometry>
        </mxCell>
        <mxCell id="hY-MnW-EoitDarra9r_p-40" value="yes" style="edgeStyle=orthogonalEdgeStyle;rounded=0;orthogonalLoop=1;jettySize=auto;html=1;" parent="1" source="hY-MnW-EoitDarra9r_p-35" target="hY-MnW-EoitDarra9r_p-39" edge="1">
          <mxGeometry relative="1" as="geometry" />
        </mxCell>
        <mxCell id="hY-MnW-EoitDarra9r_p-35" value="Is color = NA ?" style="rhombus;whiteSpace=wrap;html=1;gradientColor=#ffd966;fillColor=#fff2cc;strokeColor=#d6b656;" parent="1" vertex="1">
          <mxGeometry x="323.93" y="305" width="125" height="110" as="geometry" />
        </mxCell>
        <mxCell id="hY-MnW-EoitDarra9r_p-44" value="" style="edgeStyle=orthogonalEdgeStyle;rounded=0;orthogonalLoop=1;jettySize=auto;html=1;entryX=0;entryY=0.5;entryDx=0;entryDy=0;" parent="1" source="hY-MnW-EoitDarra9r_p-39" target="hY-MnW-EoitDarra9r_p-30" edge="1">
          <mxGeometry relative="1" as="geometry">
            <mxPoint x="279.93" y="90" as="targetPoint" />
            <Array as="points">
              <mxPoint x="270" y="480" />
              <mxPoint x="270" y="160" />
            </Array>
          </mxGeometry>
        </mxCell>
        <mxCell id="hY-MnW-EoitDarra9r_p-39" value="branch(bl) to advance_colorwheel" style="rounded=1;whiteSpace=wrap;html=1;gradientColor=#7ea6e0;fillColor=#dae8fc;strokeColor=#6c8ebf;" parent="1" vertex="1">
          <mxGeometry x="326.43" y="450" width="120" height="60" as="geometry" />
        </mxCell>
        <mxCell id="Ijgg2MWexYn2Fw6oENN2-2" value="" style="edgeStyle=orthogonalEdgeStyle;rounded=0;orthogonalLoop=1;jettySize=auto;html=1;" parent="1" source="YmnJSVa9suwpmFod_Zgd-1" target="YmnJSVa9suwpmFod_Zgd-2" edge="1">
          <mxGeometry relative="1" as="geometry" />
        </mxCell>
        <mxCell id="YmnJSVa9suwpmFod_Zgd-1" value="mainloop_fetch_mm_end" style="text;html=1;strokeColor=#b85450;fillColor=#f8cecc;align=center;verticalAlign=middle;whiteSpace=wrap;rounded=0;gradientColor=#ea6b66;" parent="1" vertex="1">
          <mxGeometry x="550" y="350" width="140" height="20" as="geometry" />
        </mxCell>
        <mxCell id="YmnJSVa9suwpmFod_Zgd-11" value="" style="edgeStyle=orthogonalEdgeStyle;rounded=0;orthogonalLoop=1;jettySize=auto;html=1;" parent="1" source="YmnJSVa9suwpmFod_Zgd-2" target="YmnJSVa9suwpmFod_Zgd-3" edge="1">
          <mxGeometry relative="1" as="geometry" />
        </mxCell>
        <mxCell id="YmnJSVa9suwpmFod_Zgd-2" value="turn off feeder" style="rounded=1;whiteSpace=wrap;html=1;gradientColor=#7ea6e0;fillColor=#dae8fc;strokeColor=#6c8ebf;" parent="1" vertex="1">
          <mxGeometry x="560" y="385" width="120" height="60" as="geometry" />
        </mxCell>
        <mxCell id="YmnJSVa9suwpmFod_Zgd-12" value="" style="edgeStyle=orthogonalEdgeStyle;rounded=0;orthogonalLoop=1;jettySize=auto;html=1;" parent="1" source="YmnJSVa9suwpmFod_Zgd-3" target="YmnJSVa9suwpmFod_Zgd-4" edge="1">
          <mxGeometry relative="1" as="geometry" />
        </mxCell>
        <mxCell id="YmnJSVa9suwpmFod_Zgd-3" value="r1 = Color" style="rounded=1;whiteSpace=wrap;html=1;gradientColor=#7ea6e0;fillColor=#dae8fc;strokeColor=#6c8ebf;" parent="1" vertex="1">
          <mxGeometry x="560" y="470" width="120" height="60" as="geometry" />
        </mxCell>
        <mxCell id="YmnJSVa9suwpmFod_Zgd-13" value="" style="edgeStyle=orthogonalEdgeStyle;rounded=0;orthogonalLoop=1;jettySize=auto;html=1;entryX=1;entryY=0.5;entryDx=0;entryDy=0;" parent="1" source="YmnJSVa9suwpmFod_Zgd-4" target="YmnJSVa9suwpmFod_Zgd-5" edge="1">
          <mxGeometry relative="1" as="geometry">
            <mxPoint x="530" y="595" as="targetPoint" />
          </mxGeometry>
        </mxCell>
        <mxCell id="YmnJSVa9suwpmFod_Zgd-4" value="branch(bl) to show_led" style="rounded=1;whiteSpace=wrap;html=1;gradientColor=#7ea6e0;fillColor=#dae8fc;strokeColor=#6c8ebf;" parent="1" vertex="1">
          <mxGeometry x="560" y="565" width="120" height="60" as="geometry" />
        </mxCell>
        <mxCell id="YmnJSVa9suwpmFod_Zgd-5" value="branch(bl) to move_snorkel_color" style="rounded=1;whiteSpace=wrap;html=1;gradientColor=#7ea6e0;fillColor=#dae8fc;strokeColor=#6c8ebf;" parent="1" vertex="1">
          <mxGeometry x="390" y="565" width="120" height="60" as="geometry" />
        </mxCell>
        <mxCell id="YmnJSVa9suwpmFod_Zgd-16" value="" style="edgeStyle=orthogonalEdgeStyle;rounded=0;orthogonalLoop=1;jettySize=auto;html=1;exitX=0;exitY=0.5;exitDx=0;exitDy=0;" parent="1" source="YmnJSVa9suwpmFod_Zgd-5" target="YmnJSVa9suwpmFod_Zgd-8" edge="1">
          <mxGeometry relative="1" as="geometry">
            <mxPoint x="390" y="595" as="sourcePoint" />
            <Array as="points" />
          </mxGeometry>
        </mxCell>
        <mxCell id="YmnJSVa9suwpmFod_Zgd-17" value="" style="edgeStyle=orthogonalEdgeStyle;rounded=0;orthogonalLoop=1;jettySize=auto;html=1;entryX=0.5;entryY=0;entryDx=0;entryDy=0;" parent="1" source="YmnJSVa9suwpmFod_Zgd-8" target="hY-MnW-EoitDarra9r_p-20" edge="1">
          <mxGeometry relative="1" as="geometry">
            <mxPoint x="580" y="850" as="targetPoint" />
          </mxGeometry>
        </mxCell>
        <mxCell id="YmnJSVa9suwpmFod_Zgd-8" value="branch(bl) to advance_colorwheel" style="rounded=1;whiteSpace=wrap;html=1;gradientColor=#7ea6e0;fillColor=#dae8fc;strokeColor=#6c8ebf;" parent="1" vertex="1">
          <mxGeometry x="230" y="565" width="120" height="60" as="geometry" />
        </mxCell>
        <mxCell id="YmnJSVa9suwpmFod_Zgd-20" value="mainloop_exit" style="text;html=1;strokeColor=#b85450;fillColor=#f8cecc;align=center;verticalAlign=middle;whiteSpace=wrap;rounded=0;gradientColor=#ea6b66;" parent="1" vertex="1">
          <mxGeometry x="680" y="690" width="90" height="20" as="geometry" />
        </mxCell>
        <mxCell id="_sODZMTpV888g5sVHCmp-4" value="" style="edgeStyle=orthogonalEdgeStyle;rounded=0;orthogonalLoop=1;jettySize=auto;html=1;" parent="1" source="_sODZMTpV888g5sVHCmp-1" target="_sODZMTpV888g5sVHCmp-2" edge="1">
          <mxGeometry relative="1" as="geometry" />
        </mxCell>
        <mxCell id="_sODZMTpV888g5sVHCmp-1" value="turn on feeder" style="rounded=1;whiteSpace=wrap;html=1;gradientColor=#7ea6e0;fillColor=#dae8fc;strokeColor=#6c8ebf;" parent="1" vertex="1">
          <mxGeometry x="140" y="30" width="120" height="60" as="geometry" />
        </mxCell>
        <mxCell id="_sODZMTpV888g5sVHCmp-5" style="edgeStyle=orthogonalEdgeStyle;rounded=0;orthogonalLoop=1;jettySize=auto;html=1;entryX=0.5;entryY=0;entryDx=0;entryDy=0;" parent="1" source="_sODZMTpV888g5sVHCmp-2" target="hY-MnW-EoitDarra9r_p-30" edge="1">
          <mxGeometry relative="1" as="geometry">
            <Array as="points">
              <mxPoint x="386" y="110" />
              <mxPoint x="386" y="110" />
            </Array>
          </mxGeometry>
        </mxCell>
        <mxCell id="_sODZMTpV888g5sVHCmp-2" value="set RETREG = NA" style="rounded=1;whiteSpace=wrap;html=1;gradientColor=#7ea6e0;fillColor=#dae8fc;strokeColor=#6c8ebf;" parent="1" vertex="1">
          <mxGeometry x="326.43" y="30" width="120" height="60" as="geometry" />
        </mxCell>
      </root>
    </mxGraphModel>
  </diagram>
</mxfile>
